<svg xmlns="http://www.w3.org/2000/svg" viewBox="0 0 120 200" fill="none">
  <path d="M60 0 C60 0, 58 40, 56 70 C54 90, 50 100, 52 120 C54 140, 60 160, 60 160" stroke="#C8102E" stroke-width="3" stroke-linecap="round" opacity="0.9"/>
  <ellipse cx="60" cy="168" rx="10" ry="14" fill="#C8102E" opacity="0.85"/>
  <path d="M30 10 C30 10, 29 35, 28 55 C27 70, 25 80, 26 95 C27 108, 30 118, 30 118" stroke="#C8102E" stroke-width="2" stroke-linecap="round" opacity="0.5"/>
  <ellipse cx="30" cy="124" rx="6" ry="9" fill="#C8102E" opacity="0.45"/>
  <path d="M88 20 C88 20, 87 48, 86 68 C85 82, 83 92, 84 104" stroke="#C8102E" stroke-width="1.5" stroke-linecap="round" opacity="0.35"/>
  <ellipse cx="84.5" cy="110" rx="4.5" ry="7" fill="#C8102E" opacity="0.3"/>
</svg>
